Coordinates
version=1
nRows=20
nColumns=34
inDegrees=yes

Units are S.I. units (second, meters, Newtons, ...)
If the header above contains a line with 'inDegrees', this indicates whether rotational values are in degrees (yes) or radians (no).

endheader
time	pelvis_tilt	pelvis_list	pelvis_rotation	pelvis_tx	pelvis_ty	pelvis_tz	hip_flexion_r	hip_adduction_r	hip_rotation_r	knee_angle_r	ankle_angle_r	subtalar_angle_r	mtp_angle_r	hip_flexion_l	hip_adduction_l	hip_rotation_l	knee_angle_l	ankle_angle_l	subtalar_angle_l	mtp_angle_l	lumbar_extension	lumbar_bending	lumbar_rotation	arm_flex_r	arm_add_r	arm_rot_r	elbow_flex_r	pro_sup_r	arm_flex_l	arm_add_l	arm_rot_l	elbow_flex_l	pro_sup_l
      8.98333330	     11.31415003	    -12.26171045	    -29.88059331	      0.97125444	      1.01095255	      0.28753262	    -14.85715968	      4.62266120	      0.76530443	     11.61255344	     15.55615495	     -2.03580861	      0.00000000	      6.88509533	     -7.75586992	    -10.94145374	     47.33396682	      9.90734372	     -6.03654507	      0.00000000	     -6.82293471	      3.65418920	      4.08083956	     13.83625870	    -10.72794183	     15.73336799	     19.04470537	    119.74817918	     11.27576107	     -5.57458911	     22.16794158	     19.25375955	    118.56392700
      9.00000000	     11.73577906	    -12.19615680	    -29.68885319	      0.97177795	      1.01193061	      0.28836700	    -15.70244739	      4.43330098	      0.73011590	     10.82485532	     15.36859055	     -1.87280324	      0.00000000	      5.54344099	     -7.21215953	    -10.65050284	     45.39730514	      9.88505686	     -6.92023857	      0.00000000	     -7.21348807	      3.15464364	      3.96260705	     14.37050566	    -11.22389588	     18.01479620	     19.29829299	    119.74817918	     10.77744429	     -5.55375721	     19.63640036	     19.00360789	    117.65157980
      9.01666670	     11.36096688	    -12.20504967	    -29.62452631	      0.97220310	      1.01147689	      0.28985295	    -15.52910196	      4.76498971	      0.72676369	     10.66754645	     15.38587280	     -1.82083579	      0.00000000	      5.04352965	     -7.36573040	    -10.42919632	     43.82575246	     10.54813507	     -7.03571567	      0.00000000	     -6.78708188	      3.13315565	      3.82889429	     14.68011291	    -11.41792509	     18.06906158	     19.57552742	    119.74817918	     10.34694968	     -5.83691575	     19.51030251	     18.52953883	    117.61240113
      9.03333330	     11.13239696	    -12.04637285	    -29.48065035	      0.97352513	      1.01115900	      0.29099744	    -15.61581819	      4.82992636	      0.76457769	     10.16369287	     15.33545498	     -1.65498194	      0.00000000	      4.22099551	     -7.12674142	    -10.12440493	     41.81230390	     12.00256053	     -7.16217304	      0.00000000	     -6.31120109	      2.90119407	      3.78455524	     14.77087681	    -11.77347916	     18.32225284	     19.96791307	    119.74817918	     10.01374460	     -5.87630884	     19.16442781	     17.96727235	    117.48803150
      9.05000000	     12.01789490	    -11.98443461	    -29.43677527	      0.97540487	      1.01272251	      0.29305022	    -16.98528577	      4.32480413	      0.79542985	      9.44701831	     15.30706264	     -1.25145642	      0.00000000	      1.59660842	     -6.33686177	    -10.26439939	     38.70631709	     12.99669521	     -6.86374670	      0.00000000	     -6.84559791	      2.06189742	      3.83194466	     15.00121664	    -12.06065989	     19.51042077	     20.50069327	    119.74817918	      9.55014838	     -6.03785217	     17.61751056	     17.60335115	    116.86516116
      9.06666670	     11.61877955	    -11.88699820	    -29.41862346	      0.97738059	      1.01213791	      0.29455459	    -16.83516321	      4.48701763	      0.86201592	      9.23816587	     15.31022219	     -1.16472707	      0.00000000	      0.60442700	     -6.17350050	     -9.88770482	     36.18929424	     14.31449799	     -6.95105281	      0.00000000	     -6.08820977	      2.03071704	      3.65295031	     15.17083618	    -12.32336289	     19.65596923	     20.75875041	    119.74817918	      8.92171725	     -6.11616883	     17.41620355	     17.27651768	    116.78024107
      9.08333330	     12.37044944	    -11.73332656	    -29.67013867	      0.97980613	      1.01344449	      0.29700430	    -17.98571166	      3.85705969	      1.09499990	      8.66404003	     15.42587835	     -0.72895704	      0.00000000	     -2.26312006	     -5.21729157	    -10.01904055	     32.34669878	     14.81241781	     -6.70124884	      0.00000000	     -6.30140631	      1.18321392	      3.91520788	     15.26713553	    -12.63017510	     20.80168862	     21.38216559	    119.74817918	      8.26729335	     -6.28871514	     16.29899681	     17.22786625	    116.31413367
      9.10000000	     12.32663870	    -11.71263153	    -29.97595437	      0.98242093	      1.01340044	      0.29887410	    -18.29109499	      3.73927450	      1.32787361	      8.35450078	     15.61262203	     -0.34248658	      0.00000000	     -4.29631896	     -4.76739674	     -9.80622114	     28.78704803	     15.64021877	     -6.52310101	      0.00000000	     -5.84867895	      1.03579816	      4.15577737	     15.32471707	    -13.03349165	     21.61503422	     21.76857762	    119.74817918	      7.53598123	     -6.23099630	     15.57893602	     17.11665726	    116.02838271
      9.11666670	     11.86893948	    -11.94795777	    -30.26864716	      0.98444904	      1.01253729	      0.30046578	    -18.11312164	      4.10833812	      1.46114860	      8.41389151	     15.59972578	     -0.16591015	      0.00000000	     -5.95544065	     -4.80494194	     -9.24847071	     25.40179298	     16.92142890	     -6.37804714	      0.00000000	     -5.27857578	      1.37766059	      4.33551554	     15.46635250	    -13.33028479	     22.03473966	     22.00918304	    119.74817918	      6.98113623	     -6.12472056	     15.20643003	     16.81794488	    115.89222549
      9.13333330	     11.22703106	    -12.33572055	    -30.31524128	      0.98716576	      1.01127289	      0.30120771	    -17.77500248	      4.75801193	      1.58427803	      8.68596258	     15.80385639	     -0.20133764	      0.00000000	     -7.31562886	     -5.19663448	     -8.67848266	     22.39976056	     17.81218295	     -6.11173733	      0.00000000	     -4.56590283	      2.18236020	      3.97859173	     15.71421897	    -13.66299321	     22.15497575	     22.25687372	    119.74817918	      6.26290219	     -5.88152434	     15.10181081	     16.40986565	    115.85011001
      9.15000000	     11.02870200	    -12.89864962	    -31.07227366	      0.99020257	      1.01071325	      0.30275791	    -18.29203834	      5.03566323	      2.54460884	      8.37475333	     16.00470325	      0.46234949	      0.00000000	     -9.79387238	     -5.27116617	     -8.75304948	     18.65632676	     18.82764890	     -5.36816384	      0.00000000	     -4.43509173	      2.94991426	      4.64907686	     15.69720154	    -14.54098650	     23.57348129	     23.24572061	    119.74817918	      5.61894281	     -5.18568247	     13.25934524	     16.12364506	    115.14266229
      9.16666670	     11.36303598	    -12.82693370	    -31.31723794	      0.99271729	      1.01132037	      0.30469825	    -18.93049796	      4.71868814	      3.11891702	      8.06873390	     15.76825677	      0.02748038	      0.00000000	    -11.46573115	     -4.77549317	     -8.63570531	     16.47751020	     18.83733039	     -5.32744706	      0.00000000	     -4.27967036	      2.52134727	      4.75819559	     15.97123480	    -14.41947754	     24.70635098	     22.86125099	    119.74817918	      4.91468095	     -5.13836165	     12.09689605	     16.16050870	    114.73811110
      9.18333330	     11.24334672	    -12.67814291	    -31.36498770	      0.99544570	      1.01128121	      0.30616961	    -19.01839998	      4.63074349	      3.10208609	      7.90872955	     15.71402959	     -0.06844450	      0.00000000	    -12.17868738	     -4.60410449	     -8.55257299	     15.16509371	     19.20018141	     -5.26609827	      0.00000000	     -3.63046813	      2.28918271	      4.72003771	     15.85403224	    -14.26189163	     24.80889471	     22.87736043	    119.74153058	      4.35295909	     -5.11216845	     11.98294380	     15.87578754	    114.70262914
      9.20000000	     11.83253033	    -12.38705230	    -31.59746912	      0.99850434	      1.01227234	      0.30853943	    -19.99593148	      3.94151151	      3.52356799	      7.22779894	     15.62145050	     -0.08554214	      0.00000000	    -13.90027000	     -3.73672164	     -8.44396663	     13.17832396	     18.61082648	     -5.07639407	      0.00000000	     -3.46091785	      1.38959737	      5.12471189	     15.57551756	    -13.91216301	     25.02775815	     22.78587322	    119.72095426	      3.84030543	     -5.24382800	     11.56424484	     15.78614543	    114.56970407
      9.21666670	     12.24182974	    -12.39475666	    -31.70925252	      1.00161188	      1.01286168	      0.30995175	    -20.92564905	      3.62451926	      3.88836034	      6.57554026	     15.41027085	     -0.36013793	      0.00000000	    -15.33076188	     -3.24417983	     -8.11444092	     11.70166212	     18.44311335	     -5.43870484	      0.00000000	     -3.44218829	      1.01445405	      5.18786134	     15.52279041	    -13.65755834	     25.02484885	     22.69409219	    119.62009208	      3.35223630	     -5.17771458	     11.10315369	     15.55612672	    114.43051601
      9.23333330	     12.23852174	    -12.32858050	    -31.73719077	      1.00437608	      1.01262438	      0.31113597	    -21.18513093	      3.51546563	      4.05864335	      6.36819996	     15.52293069	     -0.40435061	      0.00000000	    -15.80288245	     -3.07366550	     -7.89317668	     11.19832233	     18.93987545	     -5.52031036	      0.00000000	     -3.06119446	      0.80676797	      5.13227527	     15.32559333	    -13.35879480	     25.01947625	     22.68071945	    119.59723734	      2.89421458	     -5.16942995	     11.01299565	     15.24973892	    114.40299097
      9.25000000	     12.44669444	    -12.19644849	    -31.78502877	      1.00732612	      1.01249733	      0.31217135	    -21.65881644	      3.19424180	      4.33904315	      6.07301160	     15.67769089	     -0.46169264	      0.00000000	    -16.27469143	     -2.70013485	     -7.53439776	     11.00912792	     19.24370449	     -5.48502211	      0.00000000	     -2.78169346	      0.43209852	      5.18519923	     15.07048391	    -13.05950908	     24.94768397	     22.62626631	    119.55420088	      2.49236822	     -5.14263883	     10.85619571	     14.92007600	    114.34880896
      9.26666670	     12.51512853	    -12.30111479	    -31.88298523	      1.00957166	      1.01227968	      0.31288411	    -21.86182109	      3.15354304	      4.36061856	      6.18580449	     15.71339627	     -0.51568233	      0.00000000	    -16.50815201	     -2.65750765	     -7.32819170	     11.20894599	     19.30676996	     -5.42774141	      0.00000000	     -2.68348246	      0.33186466	      5.29079349	     14.87309257	    -12.82421807	     24.96678967	     22.61355772	    119.55143140	      2.20188322	     -5.10154076	     10.82933419	     14.77663921	    114.33765000
      9.28333330	     12.69585698	    -12.32441280	    -31.91792076	      1.01227611	      1.01185064	      0.31319951	    -22.26623648	      2.95884597	      4.67937913	      6.10498596	     16.03806699	     -0.61975663	      0.00000000	    -16.99359645	     -2.34663066	     -6.44020785	     11.00354194	     19.99125847	     -5.21829134	      0.00000000	     -2.63189130	      0.07757250	      5.55127574	     14.54613369	    -12.67210264	     24.84454767	     22.41632533	    119.50126828	      2.07712294	     -5.00355918	     10.63292966	     14.51278997	    114.26093362
      9.30000000	     13.20535522	    -12.46913625	    -31.67496543	      1.01478617	      1.01191238	      0.31278852	    -23.07534145	      2.78573365	      4.93102216	      5.86447313	     15.81436858	     -1.33498943	      0.00000000	    -17.71154285	     -1.97996041	     -5.09986401	     10.88949172	     19.44990891	     -5.64613676	      0.00000000	     -3.05112945	     -0.23312127	      5.38678666	     14.30728125	    -12.33512601	     23.89210039	     22.36656390	    119.18571531	      2.06844763	     -4.85444453	      9.75068539	     14.10220487	    113.88140758
